<?xml version="1.0" standalone="no"?><!DOCTYPE svg PUBLIC "-//W3C//DTD SVG 1.1//EN" "http://www.w3.org/Graphics/SVG/1.1/DTD/svg11.dtd"><svg t="1496756515251" class="icon" style="" viewBox="0 0 1024 1024" version="1.1" xmlns="http://www.w3.org/2000/svg" p-id="1429" xmlns:xlink="http://www.w3.org/1999/xlink" width="32" height="32"><defs><style type="text/css"></style></defs><path d="M707.490909 912.290909c18.618182 18.618182 18.618182 37.236364 0 55.854546-9.309091 9.309091-18.618182 9.309091-27.927273 9.30909-9.309091 0-18.618182 0-27.927272-9.30909L418.909091 744.727273 651.636364 530.618182c18.618182-18.618182 37.236364-18.618182 55.854545 0 18.618182 18.618182 18.618182 37.236364 0 55.854545L567.854545 707.490909h372.363637c18.618182 0 37.236364 18.618182 37.236363 37.236364s-18.618182 37.236364-37.236363 37.236363H558.545455l148.945454 130.327273zM316.509091 651.636364v251.345454c0 37.236364-37.236364 74.472727-74.472727 74.472727H121.018182c-37.236364 0-74.472727-37.236364-74.472727-74.472727V121.018182c0-37.236364 37.236364-74.472727 74.472727-74.472727h121.018182c37.236364 0 74.472727 37.236364 74.472727 74.472727V651.636364" fill="#207DB4" p-id="1430"></path></svg>